<svg xmlns="http://www.w3.org/2000/svg" width="19" height="19" viewBox="0 0 19 19">
    <path fill="#C0C5D2" fill-rule="nonzero" stroke="#C0C5D2" d="M16.833 18.089h-4.666A1.167 1.167 0 0 1 11 16.92v-4.665c0-.644.523-1.167 1.167-1.167h4.666c.644 0 1.167.523 1.167 1.167v4.665c0 .645-.523 1.168-1.167 1.168zM17 12.714a.625.625 0 0 0-.625-.625h-3.75a.625.625 0 0 0-.625.625v3.75c0 .345.28.625.625.625h3.75c.345 0 .625-.28.625-.625v-3.75zm-.167-4.625h-4.666A1.167 1.167 0 0 1 11 6.922V2.256c0-.645.523-1.167 1.167-1.167h4.666c.644 0 1.167.522 1.167 1.167v4.666c0 .644-.523 1.167-1.167 1.167zM17 2.712a.624.624 0 0 0-.625-.623h-3.75a.624.624 0 0 0-.625.623v3.751c0 .345.28.626.625.626h3.75c.345 0 .625-.28.625-.626v-3.75zM6.834 18.09H2.167A1.167 1.167 0 0 1 1 16.92v-4.665c0-.644.522-1.167 1.167-1.167h4.667c.644 0 1.166.523 1.166 1.167v4.665c0 .645-.522 1.168-1.166 1.168zM7 12.714a.625.625 0 0 0-.625-.625h-3.75a.625.625 0 0 0-.625.625v3.75c0 .345.28.625.625.625h3.75c.345 0 .625-.28.625-.625v-3.75zm-.166-4.625H2.167A1.167 1.167 0 0 1 1 6.922V2.256c0-.645.522-1.167 1.167-1.167h4.667C7.478 1.089 8 1.61 8 2.256v4.666c0 .644-.522 1.167-1.166 1.167zM7 2.712a.624.624 0 0 0-.625-.623h-3.75A.624.624 0 0 0 2 2.712v3.751c0 .345.28.626.625.626h3.75c.345 0 .625-.28.625-.626v-3.75z"/>
</svg>
